<svg width="494" height="273" viewBox="0 0 494 273" fill="none" xmlns="http://www.w3.org/2000/svg">
<path fill-rule="evenodd" clip-rule="evenodd" d="M73.467 57.2074L0.179688 0.212891V55.2519L73.467 112.246V57.2074ZM215.356 57.2266H73.4677V112.246H181.699L215.356 57.2266Z" fill="white"/>
<path d="M25.4983 95.1587L73.4687 132.465V168.491L25.4983 131.185V95.1587Z" fill="white"/>
<path d="M282.532 92.7866V71.7434H318.296V56.5706H282.532V47.5391H319.651V32.276H265.553V92.7866H282.532ZM334.141 108.14C347.417 108.14 354.371 105.34 359.248 94.5929L380.833 47.2682H361.867L355.094 64.9698L352.113 75.6269H350.939L347.688 65.1504L339.831 47.2682H320.503L342.269 92.2447C341.547 92.606 340.463 92.7866 339.108 92.7866H325.922V108.14H334.141ZM399.658 92.7866V32.276H382.679V92.7866H399.658ZM422.06 92.7866V69.3049C422.06 63.4345 423.505 61.5379 430.46 61.5379C437.504 61.5379 439.31 63.5248 439.31 69.8468V92.7866H456.29V69.3049C456.29 63.4345 457.735 61.5379 464.689 61.5379C471.733 61.5379 473.54 63.5248 473.54 69.8468V92.7866H490.519V63.6151C490.519 53.7708 485.01 46.365 473.359 46.365C461.528 46.365 457.193 53.4999 456.199 61.0863H455.296C454.393 52.8677 449.245 46.365 438.498 46.365C427.028 46.365 422.873 53.4999 421.88 61.0863H420.977V47.2682H405.081V92.7866H422.06ZM298.066 174.69C318.387 174.69 330.579 165.026 330.579 148.86V147.325H311.613V148.86C311.613 155.724 308.362 158.433 298.337 158.433C286.054 158.433 282.712 155.543 282.712 143.531C282.712 131.52 286.054 128.629 298.337 128.629C308.362 128.629 311.613 131.339 311.613 138.203V139.738H330.579V138.203C330.579 122.036 318.387 112.373 298.066 112.373C277.023 112.373 264.65 124.656 264.65 143.531C264.65 162.407 277.023 174.69 298.066 174.69ZM352.032 173.787V113.276H335.052V173.787H352.032ZM376.15 174.69C388.523 174.69 393.58 167.555 394.574 159.969H395.477V173.787H411.372V128.268H394.393V151.75C394.393 157.62 392.497 159.517 384.639 159.517C376.872 159.517 374.434 157.53 374.434 151.208V128.268H357.455V157.44C357.455 167.284 363.415 174.69 376.15 174.69ZM432.354 173.787V161.504H433.257C434.702 170.535 440.121 174.69 450.778 174.69C464.687 174.69 472.363 165.749 472.363 151.027C472.363 136.216 464.867 127.365 451.501 127.365C440.753 127.365 435.696 132.423 434.341 140.009H433.438V113.276H416.459V173.787H432.354ZM433.438 151.118V150.486C433.438 144.073 437.05 142.809 444.637 142.809C452.494 142.809 455.204 144.976 455.204 151.027C455.204 157.078 452.494 159.156 444.637 159.156C437.05 159.156 433.438 157.711 433.438 151.118Z" fill="white"/>
<path d="M123.576 265.62C132.576 265.62 137.976 261.34 137.976 254.18V253.5H129.576V254.18C129.576 257.22 128.136 258.42 123.696 258.42C118.256 258.42 116.776 257.14 116.776 251.82C116.776 246.5 118.256 245.22 123.696 245.22C128.136 245.22 129.576 246.42 129.576 249.46V250.14H137.976V249.46C137.976 242.3 132.576 238.02 123.576 238.02C114.256 238.02 108.776 243.46 108.776 251.82C108.776 260.18 114.256 265.62 123.576 265.62ZM151.117 265.62C158.117 265.62 162.877 261.66 162.877 255.14C162.877 248.58 158.117 244.66 151.117 244.66C144.117 244.66 139.357 248.58 139.357 255.14C139.357 261.66 144.117 265.62 151.117 265.62ZM151.117 258.98C147.717 258.98 146.797 258.06 146.797 255.14C146.797 252.22 147.717 251.26 151.117 251.26C154.517 251.26 155.437 252.22 155.437 255.14C155.437 258.06 154.517 258.98 151.117 258.98ZM172.203 265.22V254.82C172.203 252.22 172.843 251.38 175.923 251.38C179.043 251.38 179.843 252.26 179.843 255.06V265.22H187.363V254.82C187.363 252.22 188.003 251.38 191.083 251.38C194.203 251.38 195.003 252.26 195.003 255.06V265.22H202.523V252.3C202.523 247.94 200.083 244.66 194.923 244.66C189.683 244.66 187.763 247.82 187.323 251.18H186.923C186.523 247.54 184.243 244.66 179.483 244.66C174.403 244.66 172.563 247.82 172.123 251.18H171.723V245.06H164.683V265.22H172.203ZM212.282 243.22V238.42H204.762V243.22H212.282ZM212.282 265.22V245.06H204.762V265.22H212.282ZM222.203 265.22V254.82C222.203 252.22 223.003 251.38 226.323 251.38C229.603 251.38 230.643 252.26 230.643 255.06V265.22H238.163V252.3C238.163 247.94 235.603 244.66 230.163 244.66C224.763 244.66 222.563 247.82 222.123 251.18H221.723V245.06H214.683V265.22H222.203ZM249.347 262.98C253.787 262.98 255.907 261.02 256.427 258.1H256.827V262.34C256.827 265.74 256.067 266.22 252.827 266.22C248.907 266.22 248.707 265.82 248.707 264.18H241.187C241.187 269.46 245.267 272.42 252.307 272.42C260.067 272.42 264.347 269.02 264.347 261.82V245.06H257.307V249.78H256.907C256.347 246.3 253.627 244.66 249.547 244.66C243.587 244.66 239.987 248.1 239.987 253.78C239.987 259.54 243.347 262.98 249.347 262.98ZM247.587 253.78C247.587 251.82 248.547 251.14 252.067 251.14C255.427 251.14 256.827 251.58 256.827 253.74V254.02C256.827 256.14 255.427 256.54 252.067 256.54C248.547 256.54 247.587 255.78 247.587 253.78ZM285.34 265.62C294.38 265.62 297.9 261.54 297.9 256.94C297.9 253.5 296.14 250.14 289.58 249.18L281.18 247.94C279.74 247.74 279.26 247.34 279.26 246.5C279.26 245.34 280.1 244.82 283.94 244.82C288.98 244.82 289.82 245.46 289.82 247.38V247.98H297.34V247.74C297.34 241.74 293.26 238.02 284.74 238.02C275.06 238.02 271.74 242.5 271.74 246.78C271.74 251.1 274.26 253.78 279.26 254.46L287.66 255.58C289.86 255.86 290.38 256.26 290.38 257.22C290.38 258.42 289.9 258.78 285.34 258.78C280.3 258.78 279.66 258.3 279.66 256.5V255.66H272.14V255.9C272.14 262.7 277.14 265.62 285.34 265.62ZM310.843 265.62C317.843 265.62 322.603 261.66 322.603 255.14C322.603 248.58 317.843 244.66 310.843 244.66C303.843 244.66 299.083 248.58 299.083 255.14C299.083 261.66 303.843 265.62 310.843 265.62ZM310.843 258.98C307.443 258.98 306.523 258.06 306.523 255.14C306.523 252.22 307.443 251.26 310.843 251.26C314.243 251.26 315.163 252.22 315.163 255.14C315.163 258.06 314.243 258.98 310.843 258.98ZM335.57 265.62C342.57 265.62 347.33 261.66 347.33 255.14C347.33 248.58 342.57 244.66 335.57 244.66C328.57 244.66 323.81 248.58 323.81 255.14C323.81 261.66 328.57 265.62 335.57 265.62ZM335.57 258.98C332.17 258.98 331.25 258.06 331.25 255.14C331.25 252.22 332.17 251.26 335.57 251.26C338.97 251.26 339.89 252.22 339.89 255.14C339.89 258.06 338.97 258.98 335.57 258.98ZM356.657 265.22V254.82C356.657 252.22 357.457 251.38 360.777 251.38C364.057 251.38 365.097 252.26 365.097 255.06V265.22H372.617V252.3C372.617 247.94 370.057 244.66 364.617 244.66C359.217 244.66 357.017 247.82 356.577 251.18H356.177V245.06H349.137V265.22H356.657ZM384.6 265.22V257.54H374.84V265.22H384.6Z" fill="white"/>
</svg>
