<svg width="149" height="57" viewBox="0 0 149 57" fill="none" xmlns="http://www.w3.org/2000/svg">
<path d="M77.4432 24.7476V17.7083H89.407V12.6327H77.4432V9.61157H89.8601V4.50581H71.7634V24.7476H77.4432ZM94.7072 29.8835C99.1483 29.8835 101.475 28.947 103.106 25.3518L110.327 9.52093H103.982L101.716 15.4424L100.719 19.0074H100.327L99.2389 15.5028L96.6105 9.52093H90.1452L97.4262 24.5663C97.1845 24.6871 96.822 24.7476 96.3688 24.7476H91.9579V29.8835H94.7072ZM116.624 24.7476V4.50581H110.944V24.7476H116.624ZM124.118 24.7476V16.8926C124.118 14.9288 124.601 14.2944 126.927 14.2944C129.284 14.2944 129.888 14.959 129.888 17.0738V24.7476H135.568V16.8926C135.568 14.9288 136.051 14.2944 138.378 14.2944C140.734 14.2944 141.338 14.959 141.338 17.0738V24.7476H147.018V14.9892C147.018 11.6962 145.175 9.21882 141.278 9.21882C137.32 9.21882 135.87 11.6055 135.538 14.1433H135.236C134.933 11.394 133.211 9.21882 129.616 9.21882C125.779 9.21882 124.39 11.6055 124.057 14.1433H123.755V9.52093H118.438V24.7476H124.118ZM82.6396 53.0497C89.4372 53.0497 93.5157 49.817 93.5157 44.4092V43.8956H87.1713V44.4092C87.1713 46.7052 86.0837 47.6116 82.7302 47.6116C78.6214 47.6116 77.5036 46.6448 77.5036 42.6267C77.5036 38.6085 78.6214 37.6418 82.7302 37.6418C86.0837 37.6418 87.1713 38.5481 87.1713 40.8442V41.3578H93.5157V40.8442C93.5157 35.4363 89.4372 32.2037 82.6396 32.2037C75.6003 32.2037 71.4613 36.3125 71.4613 42.6267C71.4613 48.9409 75.6003 53.0497 82.6396 53.0497ZM100.692 52.7476V32.5058H95.0121V52.7476H100.692ZM108.76 53.0497C112.899 53.0497 114.591 50.663 114.923 48.1252H115.225V52.7476H120.542V37.5209H114.863V45.3759C114.863 47.3397 114.228 47.9741 111.6 47.9741C109.002 47.9741 108.186 47.3095 108.186 45.1947V37.5209H102.506V47.2793C102.506 50.5723 104.5 53.0497 108.76 53.0497ZM127.561 52.7476V48.6388H127.863C128.347 51.6599 130.159 53.0497 133.724 53.0497C138.377 53.0497 140.945 50.0587 140.945 45.1342C140.945 40.1796 138.437 37.2188 133.966 37.2188C130.371 37.2188 128.679 38.9107 128.226 41.4484H127.924V32.5058H122.244V52.7476H127.561ZM127.924 45.1645V44.953C127.924 42.808 129.132 42.385 131.67 42.385C134.298 42.385 135.205 43.1101 135.205 45.1342C135.205 47.1584 134.298 47.8533 131.67 47.8533C129.132 47.8533 127.924 47.3699 127.924 45.1645Z" fill="white"/>
<path fill-rule="evenodd" clip-rule="evenodd" d="M19.1502 22.0806L0.0963135 7.25684V21.5665L19.1502 36.3838V36.3846H47.2895L56.0398 22.0799H19.1502V22.0806Z" fill="white"/>
<path d="M6.67847 31.942L19.1504 41.6413V51.0077L6.67847 41.3085V31.942Z" fill="white"/>
</svg>
